<?xml version="1.0" encoding="UTF-8" standalone="no"?>
<!-- Created with Inkscape (http://www.inkscape.org/) -->

<svg
   width="154mm"
   height="44mm"
   viewBox="25.25 2 154 44"
   version="1.1"
   id="svg1"
   xmlns="http://www.w3.org/2000/svg"
   xmlns:svg="http://www.w3.org/2000/svg">
  <defs
     id="defs1" />
  <g
     id="g9">
    <rect
       style="display:none;fill:#ff0000;fill-opacity:1;stroke-width:0.114023;paint-order:markers stroke fill"
       id="rect13"
       width="156"
       height="5"
       x="24.25"
       y="38.696289" />
  </g>
  <g
     id="layer3">
    <ellipse
       style="fill:#000000;fill-opacity:1;stroke-width:0.264583;paint-order:markers stroke fill"
       id="ellipse16"
       cx="125.7874"
       cy="21.196369"
       rx="7.5"
       ry="12.5" />
    <ellipse
       style="fill:#000000;fill-opacity:1;stroke-width:0.264583;paint-order:markers stroke fill"
       id="ellipse7"
       cx="-78.744339"
       cy="21.196369"
       rx="7.5"
       ry="12.5"
       transform="scale(-1,1)" />
  </g>
  <g
     id="layer2">
    <path
       d="m 41.309104,36.204025 h 8.323789 l -3.158771,-2.774596 h -0.04269 V 18.958841 L 47.37053,15.287836 H 29.783857 v 6.829776 h 0.298802 c 2.176992,-3.244143 4.225924,-5.634565 7.640812,-5.634565 3.500261,0 3.585633,2.646538 3.585633,6.061426 -7.384696,2.603852 -12.549714,4.82353 -12.549714,9.177512 0,3.457574 2.176991,4.908901 5.122332,4.908901 2.817283,0 5.80531,-2.433107 7.427382,-4.012493 z m 0,-4.738157 c -1.067153,1.109839 -2.390422,1.792816 -3.713691,1.792816 -1.792816,0 -3.201457,-0.896408 -3.201457,-2.945341 0,-2.048932 0.21343,-3.884435 6.915148,-6.573659 z"
       id="text2"
       style="font-size:42.6861px;font-family:'Bluu Next';-inkscape-font-specification:'Bluu Next, Normal';fill:#818181;stroke:#000000;stroke-width:3.96875;stroke-linecap:round;stroke-dashoffset:731.943;paint-order:markers stroke fill"
       aria-label="a" />
    <path
       d="m 70.631391,36.182755 -3.8608,-4.3688 v -13.0048 c 0,-4.7752 -2.4384,-8.128 -7.62,-8.128 -3.048,0 -6.35,1.5748 -8.382,4.7244 v -4.6228 l -9.550399,3.4036 3.4544,3.9116 v 13.716 l -3.8608,4.3688 h 13.614399 l -3.6576,-4.3688 v -14.6812 c 1.6256,-2.1844 3.556,-2.9972 5.4356,-2.9972 3.9116,0 4.4704,2.4892 4.4704,6.4008 v 11.2776 l -3.6576,4.3688 z"
       id="text1"
       style="font-size:50.8px;font-family:'Bluu Next';-inkscape-font-specification:'Bluu Next, Normal';fill:#bfbfbf;stroke:#000000;stroke-width:3.96875;stroke-linecap:round;stroke-dashoffset:731.943;paint-order:markers stroke fill"
       aria-label="n" />
    <path
       d="m -64.678302,20.044275 c 0,-7.112004 -4.445003,-13.9276743 -12.860874,-13.9276743 -11.023606,0 -16.179809,8.8900053 -16.179809,16.5354093 0,7.112004 4.445002,13.927675 12.860874,13.927675 11.023606,0 16.179809,-8.890005 16.179809,-16.53541 z M -80.739578,8.3687354 c 5.21547,0 8.652938,7.8232046 8.652938,17.0688096 0,3.081869 -1.126067,8.890005 -5.511803,8.890005 -5.215469,0 -8.593671,-7.823204 -8.593671,-17.06881 0,-3.556002 0.5334,-8.8900046 5.452536,-8.8900046 z"
       id="text3"
       style="font-size:59.2667px;font-family:'Bluu Next';-inkscape-font-specification:'Bluu Next, Normal';fill:#ffffff;stroke:#000000;stroke-width:4.23333;stroke-linecap:round;stroke-dashoffset:731.943;paint-order:markers stroke fill"
       transform="scale(-1,1)"
       aria-label="o" />
    <path
       id="text4"
       style="font-style:normal;font-variant:normal;font-weight:normal;font-stretch:normal;font-size:50.8px;font-family:'Bluu Next';-inkscape-font-specification:'Bluu Next, Normal';font-variant-ligatures:normal;font-variant-caps:normal;font-variant-numeric:normal;font-variant-east-asian:normal;text-align:start;writing-mode:lr-tb;direction:ltr;text-anchor:start;display:inline;fill:#ffffff;fill-opacity:1;stroke:#000000;stroke-width:4.36903;stroke-linecap:round;stroke-linejoin:miter;stroke-miterlimit:4;stroke-dasharray:none;stroke-dashoffset:731.943;stroke-opacity:1;paint-order:markers stroke fill"
       d="m 101.35799,8.4000011 -9.418131,7.7085779 3.3418,3.41997 v 15.471278 c 0,6.188653 2.987448,8.360205 6.481181,8.360205 4.10135,0 6.83577,-2.22569 9.2662,-6.62289 l -0.60779,-0.868658 c -1.11395,2.334317 -3.4427,3.148817 -4.96172,3.148817 -2.9874,0 -4.10154,-1.411405 -4.10154,-6.622902 v -5.029157 h -0.001 V 11.270493 h 0.001 z" />
    <path
       d="m -163.22225,36.204025 h 8.32379 l -3.15877,-2.774596 h -0.0427 V 18.958841 l 0.93909,-3.671005 h -17.58667 v 6.829776 h 0.2988 c 2.17699,-3.244143 4.22592,-5.634565 7.64081,-5.634565 3.50026,0 3.58563,2.646538 3.58563,6.061426 -7.38469,2.603852 -12.54971,4.82353 -12.54971,9.177512 0,3.457574 2.17699,4.908901 5.12233,4.908901 2.81729,0 5.80531,-2.433107 7.42738,-4.012493 z m 0,-4.738157 c -1.06715,1.109839 -2.39042,1.792816 -3.71369,1.792816 -1.79281,0 -3.20145,-0.896408 -3.20145,-2.945341 0,-2.048932 0.21343,-3.884435 6.91514,-6.573659 z"
       id="text7"
       style="font-size:42.6861px;font-family:'Bluu Next';-inkscape-font-specification:'Bluu Next, Normal';fill:#818181;stroke:#000000;stroke-width:3.96875;stroke-linecap:round;stroke-dashoffset:731.943;paint-order:markers stroke fill"
       transform="scale(-1,1)"
       aria-label="a" />
    <path
       d="m -133.89986,36.182755 -3.8608,-4.3688 v -13.0048 c 0,-4.7752 -2.4384,-8.128 -7.62,-8.128 -3.048,0 -6.35,1.5748 -8.382,4.7244 v -4.6228 l -9.5504,3.4036 3.4544,3.9116 v 13.716 l -3.8608,4.3688 h 13.6144 l -3.6576,-4.3688 v -14.6812 c 1.6256,-2.1844 3.556,-2.9972 5.4356,-2.9972 3.9116,0 4.4704,2.4892 4.4704,6.4008 v 11.2776 l -3.6576,4.3688 z"
       id="text8"
       style="font-size:50.8px;font-family:'Bluu Next';-inkscape-font-specification:'Bluu Next, Normal';fill:#bfbfbf;stroke:#000000;stroke-width:3.96875;stroke-linecap:round;stroke-dashoffset:731.943;paint-order:markers stroke fill"
       transform="scale(-1,1)"
       aria-label="n" />
    <path
       d="m 139.85344,20.044275 c 0,-7.112004 -4.44501,-13.9276743 -12.86088,-13.9276743 -11.0236,0 -16.17981,8.8900053 -16.17981,16.5354093 0,7.112004 4.44501,13.927675 12.86088,13.927675 11.0236,0 16.17981,-8.890005 16.17981,-16.53541 z M 123.79216,8.3687354 c 5.21547,0 8.65294,7.8232046 8.65294,17.0688096 0,3.081869 -1.12607,8.890005 -5.5118,8.890005 -5.21547,0 -8.59368,-7.823204 -8.59368,-17.06881 0,-3.556002 0.5334,-8.8900046 5.45254,-8.8900046 z"
       id="text9"
       style="font-size:59.2667px;font-family:'Bluu Next';-inkscape-font-specification:'Bluu Next, Normal';fill:#ffffff;stroke:#000000;stroke-width:4.23333;stroke-linecap:round;stroke-dashoffset:731.943;paint-order:markers stroke fill"
       aria-label="o" />
  </g>
  <g
     id="layer4"
     transform="translate(0,-144.40332)">
    <ellipse
       style="fill:#ffffff;fill-opacity:1;stroke-width:0.105834;paint-order:markers stroke fill"
       id="ellipse15"
       cx="122.7874"
       cy="159.10016"
       rx="3"
       ry="5" />
    <ellipse
       style="fill:#ffffff;fill-opacity:1;stroke-width:0.105834;paint-order:markers stroke fill"
       id="ellipse9"
       cx="-81.744339"
       cy="159.10016"
       rx="3"
       ry="5"
       transform="scale(-1,1)" />
  </g>
</svg>
