<?xml version="1.0" encoding="UTF-8" standalone="no"?>
<!-- Created with Inkscape (http://www.inkscape.org/) -->

<svg
   width="78mm"
   height="78mm"
   viewBox="63.25 -16 78 78"
   version="1.1"
   id="svg1"
   xmlns="http://www.w3.org/2000/svg"
   xmlns:svg="http://www.w3.org/2000/svg">
  <defs
     id="defs1" />
  <g
     id="g9">
    <rect
       style="display:none;fill:#ff0000;fill-opacity:1;stroke-width:0.114023;paint-order:markers stroke fill"
       id="rect13"
       width="156"
       height="5"
       x="24.25"
       y="38.696289" />
  </g>
  <g
     id="layer3">
    <ellipse
       style="fill:#000000;fill-opacity:1;stroke-width:0.264583;paint-order:markers stroke fill"
       id="ellipse16"
       cx="124.71337"
       cy="21.196369"
       rx="7.5"
       ry="12.5" />
    <ellipse
       style="fill:#000000;fill-opacity:1;stroke-width:0.264583;paint-order:markers stroke fill"
       id="ellipse7"
       cx="-79.786995"
       cy="21.196369"
       rx="7.5"
       ry="12.5"
       transform="scale(-1,1)" />
  </g>
  <g
     id="layer2">
    <path
       d="m -65.720958,20.044275 c 0,-7.112004 -4.445003,-13.9276743 -12.860874,-13.9276743 -11.023606,0 -16.179809,8.8900053 -16.179809,16.5354093 0,7.112004 4.445002,13.927675 12.860874,13.927675 11.023606,0 16.179809,-8.890005 16.179809,-16.53541 z M -81.782234,8.3687354 c 5.21547,0 8.652938,7.8232046 8.652938,17.0688096 0,3.081869 -1.126067,8.890005 -5.511803,8.890005 -5.215469,0 -8.593671,-7.823204 -8.593671,-17.06881 0,-3.556002 0.5334,-8.8900046 5.452536,-8.8900046 z"
       id="text3"
       style="font-size:59.2667px;font-family:'Bluu Next';-inkscape-font-specification:'Bluu Next, Normal';fill:#ffffff;stroke:#000000;stroke-width:4.23333;stroke-linecap:round;stroke-dashoffset:731.943;paint-order:markers stroke fill"
       transform="scale(-1,1)"
       aria-label="o" />
    <path
       d="m 107.21085,7.0514292 -9.814788,7.4930138 3.482668,3.324365 v 15.038794 c 0,6.015518 3.11329,8.126226 6.75427,8.126226 4.27418,0 7.12364,-2.163476 9.65649,-6.437659 l -0.63322,-0.844284 c -1.16089,2.269012 -3.5882,3.060527 -5.17123,3.060527 -3.1133,0 -4.27419,-1.37196 -4.27419,-6.437659 V 17.393898 h 8.97051 l 1.16089,-2.849455 h -10.1314 z"
       id="text13"
       style="font-size:52.7677px;font-family:'Bluu Next';-inkscape-font-specification:'Bluu Next, Normal';fill:#ffffff;stroke:#000000;stroke-width:4.39731;stroke-linecap:round;stroke-dashoffset:731.943;paint-order:markers stroke fill"
       transform="scale(0.95448829,1.0476818)"
       aria-label="t" />
    <path
       d="m 138.77942,20.044275 c 0,-7.112004 -4.44501,-13.9276743 -12.86088,-13.9276743 -11.0236,0 -16.17981,8.8900053 -16.17981,16.5354093 0,7.112004 4.44501,13.927675 12.86088,13.927675 11.0236,0 16.17981,-8.890005 16.17981,-16.53541 z M 122.71814,8.3687354 c 5.21547,0 8.65294,7.8232046 8.65294,17.0688096 0,3.081869 -1.12607,8.890005 -5.5118,8.890005 -5.21547,0 -8.59368,-7.823204 -8.59368,-17.06881 0,-3.556002 0.5334,-8.8900046 5.45254,-8.8900046 z"
       id="text9"
       style="font-size:59.2667px;font-family:'Bluu Next';-inkscape-font-specification:'Bluu Next, Normal';fill:#ffffff;stroke:#000000;stroke-width:4.23333;stroke-linecap:round;stroke-dashoffset:731.943;paint-order:markers stroke fill"
       aria-label="o" />
  </g>
  <g
     id="layer4"
     transform="translate(0,-144.40332)">
    <ellipse
       style="fill:#ffffff;fill-opacity:1;stroke-width:0.105834;paint-order:markers stroke fill"
       id="ellipse15"
       cx="121.71337"
       cy="159.10016"
       rx="3"
       ry="5" />
    <ellipse
       style="fill:#ffffff;fill-opacity:1;stroke-width:0.105834;paint-order:markers stroke fill"
       id="ellipse9"
       cx="-82.786995"
       cy="159.10016"
       rx="3"
       ry="5"
       transform="scale(-1,1)" />
  </g>
</svg>
